Coordinates
version=1
nRows=18
nColumns=38
inDegrees=yes

Units are S.I. units (second, meters, Newtons, ...)
Angles are in degrees.

endheader
time	pelvis_tilt	pelvis_list	pelvis_rotation	pelvis_tx	pelvis_ty	pelvis_tz	hip_flexion_r	hip_adduction_r	hip_rotation_r	knee_angle_r	ankle_angle_r	subtalar_angle_r	mtp_angle_r	hip_flexion_l	hip_adduction_l	hip_rotation_l	knee_angle_l	ankle_angle_l	subtalar_angle_l	mtp_angle_l	lumbar_extension	lumbar_bending	lumbar_rotation	arm_flex_r	arm_add_r	arm_rot_r	elbow_flex_r	pro_sup_r	wrist_flex_r	wrist_dev_r	arm_flex_l	arm_add_l	arm_rot_l	elbow_flex_l	pro_sup_l	wrist_flex_l	wrist_dev_l
      2.30000000	    -10.70680084	    -12.16106333	     83.79355747	     -0.20337559	      1.02099624	     -0.30097754	     35.73962960	    -11.66570585	      8.97962463	   -126.69415157	     -2.84767347	      0.00000000	      0.00000000	     26.67554872	     12.76809837	     -2.02372498	    -43.67734882	     23.74236424	      0.00000000	      0.00000000	    -13.87498172	    -18.13978232	     -4.40573418	      0.00000000	      0.00000000	      0.00000000	     90.00000000	     90.00000000	      0.00000000	      0.00000000	      0.00000000	      0.00000000	      0.00000000	     90.00000000	     90.00000000	      0.00000000	      0.00000000
      2.30500000	    -10.37581967	    -12.29910523	     84.22825672	     -0.20405946	      1.02391113	     -0.30058129	     37.19879765	    -11.29235240	      8.47528458	   -125.98459256	     -2.64092127	      0.00000000	      0.00000000	     25.16154637	     12.75214936	     -1.11000766	    -42.58944869	     23.60134634	      0.00000000	      0.00000000	    -13.84104947	    -17.45466515	     -5.70995713	      0.00000000	      0.00000000	      0.00000000	     90.00000000	     90.00000000	      0.00000000	      0.00000000	      0.00000000	      0.00000000	      0.00000000	     90.00000000	     90.00000000	      0.00000000	      0.00000000
      2.31000000	     -9.99617418	    -12.44234089	     84.66579059	     -0.20470976	      1.02717242	     -0.30036167	     38.59052042	    -10.89104491	      7.92762048	   -125.09833943	     -2.43183356	      0.00000000	      0.00000000	     23.59266467	     12.66373195	     -0.16233405	    -41.38826427	     23.31698590	      0.00000000	      0.00000000	    -13.75514570	    -16.71168464	     -6.98506884	      0.00000000	      0.00000000	      0.00000000	     90.00000000	     90.00000000	      0.00000000	      0.00000000	      0.00000000	      0.00000000	      0.00000000	     90.00000000	     90.00000000	      0.00000000	      0.00000000
      2.31500000	     -9.57124417	    -12.59056340	     85.09511261	     -0.20531032	      1.03075601	     -0.30030942	     39.91262771	    -10.45895911	      7.34962187	   -124.04277863	     -2.22032601	      0.00000000	      0.00000000	     21.98345507	     12.49737747	      0.79449794	    -40.09048609	     22.88455228	      0.00000000	      0.00000000	    -13.61773766	    -15.91821510	     -8.21422915	      0.00000000	      0.00000000	      0.00000000	     90.00000000	     90.00000000	      0.00000000	      0.00000000	      0.00000000	      0.00000000	      0.00000000	     90.00000000	     90.00000000	      0.00000000	      0.00000000
      2.32000000	     -9.10586612	    -12.74369384	     85.50589707	     -0.20585374	      1.03463311	     -0.30041603	     41.16382869	     -9.99376427	      6.75394525	   -122.82594365	     -2.00748675	      0.00000000	      0.00000000	     20.35015870	     12.25016888	      1.73530266	    -38.71535750	     22.30062028	      0.00000000	      0.00000000	    -13.43097482	    -15.08240901	     -9.38182202	      0.00000000	      0.00000000	      0.00000000	     90.00000000	     90.00000000	      0.00000000	      0.00000000	      0.00000000	      0.00000000	      0.00000000	     90.00000000	     90.00000000	      0.00000000	      0.00000000
      2.32500000	     -8.60576567	    -12.90156507	     85.88900861	     -0.20633694	      1.03876933	     -0.30067482	     42.34385254	     -9.49392723	      6.15253627	   -121.45601502	     -1.79561161	      0.00000000	      0.00000000	     18.70966661	     11.92224039	      2.63566744	    -37.28277954	     21.56287675	      0.00000000	      0.00000000	    -13.19818814	    -14.21289898	    -10.47406436	      0.00000000	      0.00000000	      0.00000000	     90.00000000	     90.00000000	      0.00000000	      0.00000000	      0.00000000	      0.00000000	      0.00000000	     90.00000000	     90.00000000	      0.00000000	      0.00000000
      2.33000000	     -8.07699349	    -13.06396384	     86.23675171	     -0.20675707	      1.04312687	     -0.30107977	     43.45343435	     -8.95893351	      5.55634915	   -119.94090496	     -1.58814962	      0.00000000	      0.00000000	     17.07837940	     11.51698982	      3.47285554	    -35.81154022	     20.66973211	      0.00000000	      0.00000000	    -12.92335944	    -13.31849304	    -11.47947783	      0.00000000	      0.00000000	      0.00000000	     90.00000000	     90.00000000	      0.00000000	      0.00000000	      0.00000000	      0.00000000	      0.00000000	     90.00000000	     90.00000000	      0.00000000	      0.00000000
      2.33500000	     -7.52553261	    -13.23090385	     86.54288585	     -0.20710960	      1.04766884	     -0.30162275	     44.49412926	     -8.38943945	      4.97512194	   -118.28801237	     -1.38955121	      0.00000000	      0.00000000	     15.47110583	     11.04091672	      4.22643349	    -34.31787869	     19.61978774	      0.00000000	      0.00000000	    -12.61064996	    -12.40788721	    -12.38920919	      0.00000000	      0.00000000	      0.00000000	     90.00000000	     90.00000000	      0.00000000	      0.00000000	      0.00000000	      0.00000000	      0.00000000	     90.00000000	     90.00000000	      0.00000000	      0.00000000
      2.34000000	     -6.95715951	    -13.40294721	     86.80247618	     -0.20738864	      1.05236276	     -0.30229087	     45.46801023	     -7.78737625	      4.41718850	   -116.50415006	     -1.20499434	      0.00000000	      0.00000000	     13.90017560	     10.50307573	      4.87863202	    -32.81449301	     18.41124921	      0.00000000	      0.00000000	    -12.26405474	    -11.48941428	    -13.19719674	      0.00000000	      0.00000000	      0.00000000	     90.00000000	     90.00000000	      0.00000000	      0.00000000	      0.00000000	      0.00000000	      0.00000000	     90.00000000	     90.00000000	      0.00000000	      0.00000000
      2.34500000	     -6.37752793	    -13.58135263	     87.01170515	     -0.20758884	      1.05718058	     -0.30306633	     46.37734436	     -7.15601722	      3.88932400	   -114.59558255	     -1.03996886	      0.00000000	      0.00000000	     12.37490628	      9.91425447	      5.41446543	    -31.31002386	     17.04140899	      0.00000000	      0.00000000	    -11.88721945	    -10.57084057	    -13.90019176	      0.00000000	      0.00000000	      0.00000000	     90.00000000	     90.00000000	      0.00000000	      0.00000000	      0.00000000	      0.00000000	      0.00000000	     90.00000000	     90.00000000	      0.00000000	      0.00000000
      2.35000000	     -5.79234719	    -13.76792381	     87.16776422	     -0.20770711	      1.06209554	     -0.30392919	     47.22432185	     -6.50000773	      3.39662908	   -112.56811259	     -0.89973302	      0.00000000	      0.00000000	     10.90147499	      9.28608520	      5.82165588	    -29.80900794	     15.50634263	      0.00000000	      0.00000000	    -11.48342471	     -9.65922019	    -14.49765368	      0.00000000	      0.00000000	      0.00000000	     90.00000000	     90.00000000	      0.00000000	      0.00000000	      0.00000000	      0.00000000	      0.00000000	     90.00000000	     90.00000000	      0.00000000	      0.00000000
      2.35500000	     -5.20752947	    -13.96458216	     87.26888518	     -0.20774366	      1.06707865	     -0.30486220	     48.01086360	     -5.82535087	      2.94245403	   -110.42719467	     -0.78869466	      0.00000000	      0.00000000	      9.48313911	      8.63029469	      6.09044209	    -28.31228928	     13.80096443	      0.00000000	      0.00000000	    -11.05571963	     -8.76081707	    -14.99154426	      0.00000000	      0.00000000	      0.00000000	     90.00000000	     90.00000000	      0.00000000	      0.00000000	      0.00000000	      0.00000000	      0.00000000	     90.00000000	     90.00000000	      0.00000000	      0.00000000
      2.36000000	     -4.62926119	    -14.17281901	     87.31449247	     -0.20770300	      1.07209744	     -0.30585452	     48.73847323	     -5.13934266	      2.52835705	   -108.17807344	     -0.70980689	      0.00000000	      0.00000000	      8.12067533	      7.95820845	      6.21338631	    -26.81787334	     11.91956601	      0.00000000	      0.00000000	    -10.60717171	     -7.88110250	    -15.38604966	      0.00000000	      0.00000000	      0.00000000	     90.00000000	     90.00000000	      0.00000000	      0.00000000	      0.00000000	      0.00000000	      0.00000000	     90.00000000	     90.00000000	      0.00000000	      0.00000000
      2.36500000	     -4.06398387	    -14.39326100	     87.30540201	     -0.20759514	      1.07711655	     -0.30690102	     49.40805568	     -4.45045498	      2.15409620	   -105.82593495	     -0.66409263	      0.00000000	      0.00000000	      6.81286594	      7.28056120	      6.18530789	    -25.32218550	      9.85691422	      0.00000000	      0.00000000	    -10.14118826	     -7.02483237	    -15.68725753	      0.00000000	      0.00000000	      0.00000000	     90.00000000	     90.00000000	      0.00000000	      0.00000000	      0.00000000	      0.00000000	      0.00000000	     90.00000000	     90.00000000	      0.00000000	      0.00000000
      2.37000000	     -3.51824450	    -14.62546390	     87.24398303	     -0.20743540	      1.08209931	     -0.30799700	     50.01967808	     -3.76815735	      1.81766744	   -103.37604325	     -0.65038989	      0.00000000	      0.00000000	      5.55691775	      6.60763524	      6.00345765	    -23.82162624	      7.60991918	      0.00000000	      0.00000000	     -9.66185304	     -6.19620213	    -15.90281151	      0.00000000	      0.00000000	      0.00000000	     90.00000000	     90.00000000	      0.00000000	      0.00000000	      0.00000000	      0.00000000	      0.00000000	     90.00000000	     90.00000000	      0.00000000	      0.00000000
      2.37500000	     -2.99842579	    -14.86784088	     87.13421660	     -0.20724223	      1.08700985	     -0.30913257	     50.57234226	     -3.10266112	      1.51541213	   -100.83382250	     -0.66535458	      0.00000000	      0.00000000	      4.34880999	      5.94965257	      5.66801262	    -22.31422675	      5.17980900	      0.00000000	      0.00000000	     -9.17421488	     -5.39906634	    -16.04156050	      0.00000000	      0.00000000	      0.00000000	     90.00000000	     90.00000000	      0.00000000	      0.00000000	      0.00000000	      0.00000000	      0.00000000	     90.00000000	     90.00000000	      0.00000000	      0.00000000
      2.38000000	     -2.51046677	    -15.11756045	     86.98159985	     -0.20703444	      1.09181653	     -0.31029111	     51.06384420	     -2.46458235	      1.24222515	    -98.20484981	     -0.70371980	      0.00000000	      0.00000000	      3.18363905	      5.31722164	      5.18290779	    -20.80114665	      2.57466103	      0.00000000	      0.00000000	     -8.68446960	     -4.63719604	    -16.11321783	      0.00000000	      0.00000000	      0.00000000	     90.00000000	     90.00000000	      0.00000000	      0.00000000	      0.00000000	      0.00000000	      0.00000000	     90.00000000	     90.00000000	      0.00000000	      0.00000000
      2.38500000	     -2.05968907	    -15.37032945	     86.79285728	     -0.20682906	      1.09649474	     -0.31145337	     51.49071704	     -1.86455071	      0.99189681	    -95.49475129	     -0.75879818	      0.00000000	      0.00000000	      2.05603955	      4.72160913	      4.55694059	    -19.28776006	     -0.18796187	      0.00000000	      0.00000000	     -8.19999222	     -3.91453829	    -16.12804303	      0.00000000	      0.00000000	      0.00000000	     90.00000000	     90.00000000	      0.00000000	      0.00000000	      0.00000000	      0.00000000	      0.00000000	     90.00000000	     90.00000000	      0.00000000	      0.00000000
